<mxfile host="app.diagrams.net" agent="Mozilla/5.0 (Windows NT 10.0; Win64; x64) AppleWebKit/537.36 (KHTML, like Gecko) Chrome/128.0.0.0 Safari/537.36" version="24.7.7">
  <diagram name="Página-1" id="zHMdx8sxdnrWhioGsmGZ">
    <mxGraphModel dx="1687" dy="878" grid="1" gridSize="10" guides="1" tooltips="1" connect="1" arrows="1" fold="1" page="1" pageScale="1" pageWidth="827" pageHeight="1169" math="0" shadow="0">
      <root>
        <mxCell id="0" />
        <mxCell id="1" parent="0" />
        <mxCell id="_8aHbU15-kPBStmveb5s-1" value="&lt;h1 style=&quot;margin-top: 0px;&quot;&gt;Caso_De_Uso_V:1.0&lt;/h1&gt;&lt;div&gt;&lt;span style=&quot;background-color: initial;&quot;&gt;Caso de uso para projeto integrador, baseando-se na criação de um e-commerce&lt;/span&gt;&lt;br&gt;&lt;/div&gt;" style="text;html=1;whiteSpace=wrap;overflow=hidden;rounded=0;" vertex="1" parent="1">
          <mxGeometry x="40" y="40" width="240" height="90" as="geometry" />
        </mxCell>
        <mxCell id="_8aHbU15-kPBStmveb5s-2" value="Cliente" style="shape=umlActor;verticalLabelPosition=bottom;verticalAlign=top;html=1;outlineConnect=0;" vertex="1" parent="1">
          <mxGeometry x="10" y="570" width="30" height="60" as="geometry" />
        </mxCell>
        <mxCell id="_8aHbU15-kPBStmveb5s-5" value="Realizar login" style="ellipse;whiteSpace=wrap;html=1;" vertex="1" parent="1">
          <mxGeometry x="200" y="700" width="120" height="80" as="geometry" />
        </mxCell>
        <mxCell id="_8aHbU15-kPBStmveb5s-6" value="Pesquisar/Navegar por produtos" style="ellipse;whiteSpace=wrap;html=1;" vertex="1" parent="1">
          <mxGeometry x="200" y="170" width="120" height="80" as="geometry" />
        </mxCell>
        <mxCell id="_8aHbU15-kPBStmveb5s-8" value="Adicionar produtos ao carrinho" style="ellipse;whiteSpace=wrap;html=1;" vertex="1" parent="1">
          <mxGeometry x="200" y="440" width="120" height="80" as="geometry" />
        </mxCell>
        <mxCell id="_8aHbU15-kPBStmveb5s-9" value="Finalizar compra" style="ellipse;whiteSpace=wrap;html=1;" vertex="1" parent="1">
          <mxGeometry x="200" y="880" width="120" height="80" as="geometry" />
        </mxCell>
        <mxCell id="_8aHbU15-kPBStmveb5s-10" value="Personalizar produto" style="ellipse;whiteSpace=wrap;html=1;" vertex="1" parent="1">
          <mxGeometry x="320" y="570" width="120" height="80" as="geometry" />
        </mxCell>
        <mxCell id="_8aHbU15-kPBStmveb5s-14" value="Verificar estoque" style="ellipse;whiteSpace=wrap;html=1;" vertex="1" parent="1">
          <mxGeometry x="320" y="320" width="120" height="80" as="geometry" />
        </mxCell>
        <mxCell id="_8aHbU15-kPBStmveb5s-16" value="" style="endArrow=classic;html=1;rounded=0;dashed=1;" edge="1" parent="1" source="_8aHbU15-kPBStmveb5s-8" target="_8aHbU15-kPBStmveb5s-14">
          <mxGeometry width="50" height="50" relative="1" as="geometry">
            <mxPoint x="-150" y="580" as="sourcePoint" />
            <mxPoint x="-100" y="530" as="targetPoint" />
          </mxGeometry>
        </mxCell>
        <mxCell id="_8aHbU15-kPBStmveb5s-18" value="&amp;lt;&amp;lt;Include&amp;gt;&amp;gt;" style="edgeLabel;html=1;align=center;verticalAlign=middle;resizable=0;points=[];" vertex="1" connectable="0" parent="_8aHbU15-kPBStmveb5s-16">
          <mxGeometry x="-0.0347" y="-4" relative="1" as="geometry">
            <mxPoint as="offset" />
          </mxGeometry>
        </mxCell>
        <mxCell id="_8aHbU15-kPBStmveb5s-19" value="" style="endArrow=classic;html=1;rounded=0;dashed=1;" edge="1" parent="1" source="_8aHbU15-kPBStmveb5s-8" target="_8aHbU15-kPBStmveb5s-10">
          <mxGeometry width="50" height="50" relative="1" as="geometry">
            <mxPoint x="400" y="570" as="sourcePoint" />
            <mxPoint x="450" y="520" as="targetPoint" />
          </mxGeometry>
        </mxCell>
        <mxCell id="_8aHbU15-kPBStmveb5s-23" value="&amp;lt;&amp;lt;Extend&amp;gt;&amp;gt;" style="edgeLabel;html=1;align=center;verticalAlign=middle;resizable=0;points=[];" vertex="1" connectable="0" parent="_8aHbU15-kPBStmveb5s-19">
          <mxGeometry x="-0.0412" y="-1" relative="1" as="geometry">
            <mxPoint as="offset" />
          </mxGeometry>
        </mxCell>
        <mxCell id="_8aHbU15-kPBStmveb5s-20" value="" style="endArrow=classic;html=1;rounded=0;" edge="1" parent="1" source="_8aHbU15-kPBStmveb5s-2" target="_8aHbU15-kPBStmveb5s-8">
          <mxGeometry width="50" height="50" relative="1" as="geometry">
            <mxPoint x="400" y="570" as="sourcePoint" />
            <mxPoint x="450" y="520" as="targetPoint" />
          </mxGeometry>
        </mxCell>
        <mxCell id="_8aHbU15-kPBStmveb5s-21" value="" style="endArrow=classic;html=1;rounded=0;" edge="1" parent="1" source="_8aHbU15-kPBStmveb5s-2" target="_8aHbU15-kPBStmveb5s-6">
          <mxGeometry width="50" height="50" relative="1" as="geometry">
            <mxPoint x="50" y="603" as="sourcePoint" />
            <mxPoint x="301" y="483" as="targetPoint" />
          </mxGeometry>
        </mxCell>
        <mxCell id="_8aHbU15-kPBStmveb5s-22" value="" style="endArrow=classic;html=1;rounded=0;" edge="1" parent="1" source="_8aHbU15-kPBStmveb5s-2" target="_8aHbU15-kPBStmveb5s-5">
          <mxGeometry width="50" height="50" relative="1" as="geometry">
            <mxPoint x="60" y="613" as="sourcePoint" />
            <mxPoint x="311" y="493" as="targetPoint" />
          </mxGeometry>
        </mxCell>
        <mxCell id="_8aHbU15-kPBStmveb5s-24" value="" style="endArrow=classic;html=1;rounded=0;dashed=1;" edge="1" parent="1" source="_8aHbU15-kPBStmveb5s-6" target="_8aHbU15-kPBStmveb5s-14">
          <mxGeometry width="50" height="50" relative="1" as="geometry">
            <mxPoint x="303" y="457" as="sourcePoint" />
            <mxPoint x="357" y="403" as="targetPoint" />
          </mxGeometry>
        </mxCell>
        <mxCell id="_8aHbU15-kPBStmveb5s-25" value="&amp;lt;&amp;lt;Include&amp;gt;&amp;gt;" style="edgeLabel;html=1;align=center;verticalAlign=middle;resizable=0;points=[];" vertex="1" connectable="0" parent="_8aHbU15-kPBStmveb5s-24">
          <mxGeometry x="-0.0347" y="-4" relative="1" as="geometry">
            <mxPoint as="offset" />
          </mxGeometry>
        </mxCell>
        <mxCell id="_8aHbU15-kPBStmveb5s-28" value="" style="endArrow=classic;html=1;rounded=0;" edge="1" parent="1" source="_8aHbU15-kPBStmveb5s-2" target="_8aHbU15-kPBStmveb5s-9">
          <mxGeometry width="50" height="50" relative="1" as="geometry">
            <mxPoint x="400" y="660" as="sourcePoint" />
            <mxPoint x="450" y="610" as="targetPoint" />
          </mxGeometry>
        </mxCell>
        <mxCell id="_8aHbU15-kPBStmveb5s-29" value="Escolher diferentes metodos de pagamento" style="ellipse;whiteSpace=wrap;html=1;" vertex="1" parent="1">
          <mxGeometry x="380" y="700" width="120" height="80" as="geometry" />
        </mxCell>
        <mxCell id="_8aHbU15-kPBStmveb5s-31" value="" style="endArrow=classic;html=1;rounded=0;dashed=1;" edge="1" parent="1" source="_8aHbU15-kPBStmveb5s-9" target="_8aHbU15-kPBStmveb5s-29">
          <mxGeometry width="50" height="50" relative="1" as="geometry">
            <mxPoint x="400" y="780" as="sourcePoint" />
            <mxPoint x="450" y="730" as="targetPoint" />
          </mxGeometry>
        </mxCell>
        <mxCell id="_8aHbU15-kPBStmveb5s-32" value="&amp;lt;&amp;lt;included&amp;gt;&amp;gt;" style="edgeLabel;html=1;align=center;verticalAlign=middle;resizable=0;points=[];" vertex="1" connectable="0" parent="_8aHbU15-kPBStmveb5s-31">
          <mxGeometry x="-0.0067" relative="1" as="geometry">
            <mxPoint as="offset" />
          </mxGeometry>
        </mxCell>
        <mxCell id="_8aHbU15-kPBStmveb5s-33" value="Rastrear status da compra" style="ellipse;whiteSpace=wrap;html=1;" vertex="1" parent="1">
          <mxGeometry x="200" y="1040" width="120" height="80" as="geometry" />
        </mxCell>
        <mxCell id="_8aHbU15-kPBStmveb5s-35" value="" style="endArrow=classic;html=1;rounded=0;" edge="1" parent="1" source="_8aHbU15-kPBStmveb5s-2" target="_8aHbU15-kPBStmveb5s-33">
          <mxGeometry width="50" height="50" relative="1" as="geometry">
            <mxPoint x="400" y="1010" as="sourcePoint" />
            <mxPoint x="450" y="960" as="targetPoint" />
          </mxGeometry>
        </mxCell>
        <mxCell id="_8aHbU15-kPBStmveb5s-36" value="Administrador" style="shape=umlActor;verticalLabelPosition=bottom;verticalAlign=top;html=1;outlineConnect=0;" vertex="1" parent="1">
          <mxGeometry x="770" y="570" width="30" height="60" as="geometry" />
        </mxCell>
        <mxCell id="_8aHbU15-kPBStmveb5s-37" value="Gerenciar pedidos dos clientes" style="ellipse;whiteSpace=wrap;html=1;" vertex="1" parent="1">
          <mxGeometry x="520" y="480" width="120" height="80" as="geometry" />
        </mxCell>
        <mxCell id="_8aHbU15-kPBStmveb5s-38" value="Adicionar/ Editar/ Remover produtos" style="ellipse;whiteSpace=wrap;html=1;" vertex="1" parent="1">
          <mxGeometry x="520" y="320" width="120" height="80" as="geometry" />
        </mxCell>
        <mxCell id="_8aHbU15-kPBStmveb5s-39" value="Gerenciar contas de clientes" style="ellipse;whiteSpace=wrap;html=1;" vertex="1" parent="1">
          <mxGeometry x="520" y="800" width="120" height="80" as="geometry" />
        </mxCell>
        <mxCell id="_8aHbU15-kPBStmveb5s-40" value="Acessar relatório de vendas" style="ellipse;whiteSpace=wrap;html=1;" vertex="1" parent="1">
          <mxGeometry x="520" y="640" width="120" height="80" as="geometry" />
        </mxCell>
        <mxCell id="_8aHbU15-kPBStmveb5s-41" value="" style="endArrow=classic;html=1;rounded=0;" edge="1" parent="1" source="_8aHbU15-kPBStmveb5s-36" target="_8aHbU15-kPBStmveb5s-38">
          <mxGeometry width="50" height="50" relative="1" as="geometry">
            <mxPoint x="365" y="630" as="sourcePoint" />
            <mxPoint x="415" y="580" as="targetPoint" />
          </mxGeometry>
        </mxCell>
        <mxCell id="_8aHbU15-kPBStmveb5s-42" value="" style="endArrow=classic;html=1;rounded=0;" edge="1" parent="1" source="_8aHbU15-kPBStmveb5s-36" target="_8aHbU15-kPBStmveb5s-37">
          <mxGeometry width="50" height="50" relative="1" as="geometry">
            <mxPoint x="815" y="580" as="sourcePoint" />
            <mxPoint x="815" y="410" as="targetPoint" />
          </mxGeometry>
        </mxCell>
        <mxCell id="_8aHbU15-kPBStmveb5s-43" value="" style="endArrow=classic;html=1;rounded=0;" edge="1" parent="1" source="_8aHbU15-kPBStmveb5s-36" target="_8aHbU15-kPBStmveb5s-40">
          <mxGeometry width="50" height="50" relative="1" as="geometry">
            <mxPoint x="825" y="590" as="sourcePoint" />
            <mxPoint x="825" y="420" as="targetPoint" />
          </mxGeometry>
        </mxCell>
        <mxCell id="_8aHbU15-kPBStmveb5s-44" value="" style="endArrow=classic;html=1;rounded=0;" edge="1" parent="1" source="_8aHbU15-kPBStmveb5s-36" target="_8aHbU15-kPBStmveb5s-39">
          <mxGeometry width="50" height="50" relative="1" as="geometry">
            <mxPoint x="790" y="600" as="sourcePoint" />
            <mxPoint x="790" y="430" as="targetPoint" />
          </mxGeometry>
        </mxCell>
        <mxCell id="_8aHbU15-kPBStmveb5s-46" value="" style="endArrow=none;html=1;rounded=0;" edge="1" parent="1">
          <mxGeometry width="50" height="50" relative="1" as="geometry">
            <mxPoint x="160" y="160" as="sourcePoint" />
            <mxPoint x="680" y="160" as="targetPoint" />
          </mxGeometry>
        </mxCell>
        <mxCell id="_8aHbU15-kPBStmveb5s-47" value="" style="endArrow=none;html=1;rounded=0;" edge="1" parent="1">
          <mxGeometry width="50" height="50" relative="1" as="geometry">
            <mxPoint x="160" y="1130" as="sourcePoint" />
            <mxPoint x="680" y="1130" as="targetPoint" />
          </mxGeometry>
        </mxCell>
        <mxCell id="_8aHbU15-kPBStmveb5s-48" value="" style="endArrow=none;html=1;rounded=0;" edge="1" parent="1">
          <mxGeometry width="50" height="50" relative="1" as="geometry">
            <mxPoint x="680" y="1130" as="sourcePoint" />
            <mxPoint x="680" y="160" as="targetPoint" />
          </mxGeometry>
        </mxCell>
        <mxCell id="_8aHbU15-kPBStmveb5s-49" value="" style="endArrow=none;html=1;rounded=0;" edge="1" parent="1">
          <mxGeometry width="50" height="50" relative="1" as="geometry">
            <mxPoint x="160" y="1130" as="sourcePoint" />
            <mxPoint x="160" y="160" as="targetPoint" />
          </mxGeometry>
        </mxCell>
      </root>
    </mxGraphModel>
  </diagram>
</mxfile>
